# xmcd
#
# Track frame offsets: 
#        150
#        12620
#        23267
#        34575
#        47563
#        56947
#        71403
#        82820
#        94022
#        105820
#        116145
#        126103
#        138639
#        149648
#        160713
#        171939
#        182248
#        193776
#        205635
#        217442
#        229517
#        240134
#        252067
#        264017
#        275377
#        286002
#        297192
#        307934
#
# Disc length: 4249 seconds
#
# Revision: 0
# Processed by: cddbd v1.5.1PL0 Copyright (c) Steve Scherf et al.
# Submitted via: ExactAudioCopy v0.95a5
#
DISCID=8110971c
DTITLE=Patsy Cline - Crazy Dreams and Bonus Tracks
DYEAR=2005
DGENRE=Country
TTITLE0=A Poor Man's Roses
TTITLE1=I Can See An Angel
TTITLE2=Crazy Dreams
TTITLE3=If I Could See The World (Through The Eyes Of A Child)
TTITLE4=Come On In (And Make Yourself At Home)
TTITLE5=Then You'll Know
TTITLE6=The Heart You Break May Be Your Own
TTITLE7=Hungry For Love
TTITLE8=Today, Tomorrow and Forever
TTITLE9=Three Cigarettes In An Ashtray
TTITLE10=Turn The Cards Slowly
TTITLE11=Fingerprints
TTITLE12=Stop The World (And Let Me Off)
TTITLE13=Hidin' Out
TTITLE14=Cry Not For Me
TTITLE15=Pick Me Up On Your Way Down
TTITLE16=In Care Of The Blues
TTITLE17=If I Could Only Stay Asleep
TTITLE18=Walking After Midnight
TTITLE19=Crazy
TTITLE20=I Love You, Honey
TTITLE21=Honky Tonk Merry Go Round
TTITLE22=Never No More
TTITLE23=Just Out Of Reach
TTITLE24=Lovesick Blues
TTITLE25=A Stranger In My Arms
TTITLE26=I Cried All The Way To The Alter
TTITLE27=Stop Look And Listen
EXTD=
EXTT0=
EXTT1=
EXTT2=
EXTT3=
EXTT4=
EXTT5=
EXTT6=
EXTT7=
EXTT8=
EXTT9=
EXTT10=
EXTT11=
EXTT12=
EXTT13=
EXTT14=
EXTT15=
EXTT16=
EXTT17=
EXTT18=
EXTT19=
EXTT20=
EXTT21=
EXTT22=
EXTT23=
EXTT24=
EXTT25=
EXTT26=
EXTT27=
PLAYORDER=
